<svg width="784" height="139" viewBox="0 0 784 139" fill="none" xmlns="http://www.w3.org/2000/svg">
<path d="M174 40L130 0L0 119L22.5 138.5L130 41.5L203.5 107L225.5 87L199 62.5V9.5H174V40Z" fill="#FECA3C"/>
<path d="M112 125V87H149V125H112Z" fill="#FECA3C"/>
<path d="M287.368 70.608V138H270.952V70.608H287.368ZM331.905 83.856C338.177 83.856 343.169 85.904 346.881 90C350.657 94.032 352.545 99.6 352.545 106.704V138H336.225V108.912C336.225 105.328 335.297 102.544 333.441 100.56C331.585 98.576 329.089 97.584 325.953 97.584C322.817 97.584 320.321 98.576 318.465 100.56C316.609 102.544 315.681 105.328 315.681 108.912V138H299.265V84.432H315.681V91.536C317.345 89.168 319.585 87.312 322.401 85.968C325.217 84.56 328.385 83.856 331.905 83.856ZM432.304 83.856C438.96 83.856 444.24 85.872 448.144 89.904C452.112 93.936 454.096 99.536 454.096 106.704V138H437.776V108.912C437.776 105.456 436.848 102.8 434.992 100.944C433.2 99.024 430.704 98.064 427.504 98.064C424.304 98.064 421.776 99.024 419.92 100.944C418.128 102.8 417.232 105.456 417.232 108.912V138H400.912V108.912C400.912 105.456 399.984 102.8 398.128 100.944C396.336 99.024 393.84 98.064 390.64 98.064C387.44 98.064 384.912 99.024 383.056 100.944C381.264 102.8 380.368 105.456 380.368 108.912V138H363.952V84.432H380.368V91.152C382.032 88.912 384.208 87.152 386.896 85.872C389.584 84.528 392.624 83.856 396.016 83.856C400.048 83.856 403.632 84.72 406.768 86.448C409.968 88.176 412.464 90.64 414.256 93.84C416.112 90.896 418.64 88.496 421.84 86.64C425.04 84.784 428.528 83.856 432.304 83.856ZM489.961 138.768C484.713 138.768 479.977 137.648 475.753 135.408C471.593 133.168 468.297 129.968 465.865 125.808C463.497 121.648 462.313 116.784 462.313 111.216C462.313 105.712 463.529 100.88 465.961 96.72C468.393 92.496 471.721 89.264 475.945 87.024C480.169 84.784 484.905 83.664 490.153 83.664C495.401 83.664 500.137 84.784 504.361 87.024C508.585 89.264 511.913 92.496 514.345 96.72C516.777 100.88 517.993 105.712 517.993 111.216C517.993 116.72 516.745 121.584 514.249 125.808C511.817 129.968 508.457 133.168 504.169 135.408C499.945 137.648 495.209 138.768 489.961 138.768ZM489.961 124.56C493.097 124.56 495.753 123.408 497.929 121.104C500.169 118.8 501.289 115.504 501.289 111.216C501.289 106.928 500.201 103.632 498.025 101.328C495.913 99.024 493.289 97.872 490.153 97.872C486.953 97.872 484.297 99.024 482.185 101.328C480.073 103.568 479.017 106.864 479.017 111.216C479.017 115.504 480.041 118.8 482.089 121.104C484.201 123.408 486.825 124.56 489.961 124.56ZM543.118 92.016C544.654 89.52 546.862 87.504 549.742 85.968C552.622 84.432 555.918 83.664 559.63 83.664C564.046 83.664 568.046 84.784 571.63 87.024C575.214 89.264 578.03 92.464 580.078 96.624C582.19 100.784 583.246 105.616 583.246 111.12C583.246 116.624 582.19 121.488 580.078 125.712C578.03 129.872 575.214 133.104 571.63 135.408C568.046 137.648 564.046 138.768 559.63 138.768C555.854 138.768 552.558 138.032 549.742 136.56C546.926 135.024 544.718 133.008 543.118 130.512V138H526.702V66.96H543.118V92.016ZM566.542 111.12C566.542 107.024 565.39 103.824 563.086 101.52C560.846 99.152 558.062 97.968 554.734 97.968C551.47 97.968 548.686 99.152 546.382 101.52C544.142 103.888 543.022 107.12 543.022 111.216C543.022 115.312 544.142 118.544 546.382 120.912C548.686 123.28 551.47 124.464 554.734 124.464C557.998 124.464 560.782 123.28 563.086 120.912C565.39 118.48 566.542 115.216 566.542 111.12ZM600.114 78.864C597.234 78.864 594.866 78.032 593.01 76.368C591.218 74.64 590.322 72.528 590.322 70.032C590.322 67.472 591.218 65.36 593.01 63.696C594.866 61.968 597.234 61.104 600.114 61.104C602.93 61.104 605.234 61.968 607.026 63.696C608.882 65.36 609.81 67.472 609.81 70.032C609.81 72.528 608.882 74.64 607.026 76.368C605.234 78.032 602.93 78.864 600.114 78.864ZM608.274 84.432V138H591.858V84.432H608.274ZM670.667 110.352C670.667 111.888 670.571 113.488 670.379 115.152H633.227C633.483 118.48 634.539 121.04 636.395 122.832C638.315 124.56 640.651 125.424 643.403 125.424C647.499 125.424 650.347 123.696 651.947 120.24H669.419C668.523 123.76 666.891 126.928 664.523 129.744C662.219 132.56 659.307 134.768 655.787 136.368C652.267 137.968 648.331 138.768 643.979 138.768C638.731 138.768 634.059 137.648 629.963 135.408C625.867 133.168 622.667 129.968 620.363 125.808C618.059 121.648 616.907 116.784 616.907 111.216C616.907 105.648 618.027 100.784 620.267 96.624C622.571 92.464 625.771 89.264 629.867 87.024C633.963 84.784 638.667 83.664 643.979 83.664C649.163 83.664 653.771 84.752 657.803 86.928C661.835 89.104 664.971 92.208 667.211 96.24C669.515 100.272 670.667 104.976 670.667 110.352ZM653.867 106.032C653.867 103.216 652.907 100.976 650.987 99.312C649.067 97.648 646.667 96.816 643.787 96.816C641.035 96.816 638.699 97.616 636.779 99.216C634.923 100.816 633.771 103.088 633.323 106.032H653.867ZM695.743 93.36C697.663 90.416 700.063 88.112 702.943 86.448C705.823 84.72 709.023 83.856 712.543 83.856V101.232H708.031C703.935 101.232 700.863 102.128 698.815 103.92C696.767 105.648 695.743 108.72 695.743 113.136V138H679.327V84.432H695.743V93.36ZM717.126 111.12C717.126 105.616 718.15 100.784 720.198 96.624C722.31 92.464 725.158 89.264 728.742 87.024C732.326 84.784 736.326 83.664 740.742 83.664C744.518 83.664 747.814 84.432 750.63 85.968C753.51 87.504 755.718 89.52 757.254 92.016V84.432H773.67V138H757.254V130.416C755.654 132.912 753.414 134.928 750.534 136.464C747.718 138 744.422 138.768 740.646 138.768C736.294 138.768 732.326 137.648 728.742 135.408C725.158 133.104 722.31 129.872 720.198 125.712C718.15 121.488 717.126 116.624 717.126 111.12ZM757.254 111.216C757.254 107.12 756.102 103.888 753.798 101.52C751.558 99.152 748.806 97.968 745.542 97.968C742.278 97.968 739.494 99.152 737.19 101.52C734.95 103.824 733.83 107.024 733.83 111.12C733.83 115.216 734.95 118.48 737.19 120.912C739.494 123.28 742.278 124.464 745.542 124.464C748.806 124.464 751.558 123.28 753.798 120.912C756.102 118.544 757.254 115.312 757.254 111.216Z" fill="#2A2F35"/>
</svg>
